<mxfile host="app.diagrams.net" modified="2024-03-13T15:02:38.641Z" agent="Mozilla/5.0 (Windows NT 10.0; Win64; x64; rv:123.0) Gecko/20100101 Firefox/123.0" version="24.0.5" etag="L_-hRuPwD1WUrD_HRaWf" type="github">
  <diagram name="Page-1" id="IFtVDRIwUo4aNaYcMkbG">
    <mxGraphModel>
      <root>
        <mxCell id="0" />
        <mxCell id="1" parent="0" />
      </root>
    </mxGraphModel>
  </diagram>
</mxfile>
